<svg xmlns="http://www.w3.org/2000/svg" version="1.1" xmlns:xlink="http://www.w3.org/1999/xlink" width="1000" height="1000"><g clip-path="url(#SvgjsClipPath2115)"><rect width="1000" height="1000" fill="#4b88ff"></rect><g transform="matrix(1.9230769230769231,0,0,1.9230769230769231,150,218.26923076923077)"><svg xmlns="http://www.w3.org/2000/svg" version="1.1" xmlns:xlink="http://www.w3.org/1999/xlink" width="364" height="293"><svg width="364" height="293" viewBox="0 0 364 293" xmlns="http://www.w3.org/2000/svg">
    <path id="F1-copy-5" fill="#ffffff" fill-rule="evenodd" stroke="none" d="M 327.600006 1.799988 C 267.290497 1.799988 218.399994 50.690506 218.399994 111 L 218.399994 147.399994 L 291.200012 147.399994 L 291.200012 111 C 291.200012 90.896835 307.496826 74.600006 327.600006 74.600006 L 364 74.600006 L 364 1.799988 L 327.600006 1.799988 Z M 327.600006 147.399994 C 267.290497 147.399994 218.399994 196.290497 218.399994 256.600006 L 218.399994 293 L 291.200012 293 L 291.200012 256.600006 C 291.200012 236.496841 307.496826 220.199997 327.600006 220.199997 L 364 220.199997 L 364 147.399994 L 327.600006 147.399994 Z M 109.199997 74.600006 C 48.890507 74.600006 0 123.490509 0 183.800003 C 0 244.109497 48.890507 293 109.199997 293 C 169.509491 293 218.399994 244.109497 218.399994 183.800003 L 218.399994 147.399994 L 145.600006 147.399994 L 145.600006 183.800003 C 145.600006 203.903168 129.303162 220.199997 109.199997 220.199997 C 89.09684 220.199997 72.800003 203.903168 72.800003 183.800003 C 72.800003 163.696838 89.09684 147.399994 109.199997 147.399994 C 169.509491 147.399994 218.399994 98.509491 218.399994 38.199997 L 218.399994 1.799988 L 145.600006 1.799988 L 145.600006 38.199997 C 145.600006 58.303162 129.303162 74.600006 109.199997 74.600006 Z"></path>
</svg></svg></g></g><defs><clipPath id="SvgjsClipPath2115"><rect width="1000" height="1000" x="0" y="0" rx="200" ry="200"></rect></clipPath></defs></svg>