<?xml version="1.0" encoding="UTF-8"?>
<!-- Generated by Pixelmator Pro 3.7 -->
<svg width="512" height="512" viewBox="0 0 512 512" xmlns="http://www.w3.org/2000/svg">
    <path id="Path" fill="#ffffff" stroke="none" d="M 480 404.735992 C 471.573883 404.581512 463.438843 407.818085 457.421783 413.718781 C 451.404755 419.619507 448.01001 427.689819 448 436.11734 C 442.616333 443.98877 433.523804 448.490601 424 448 C 418.318207 448.031708 412.712555 446.692505 407.658661 444.095978 C 438.996216 408.475494 459.959839 364.939697 468.266693 318.229309 C 474.073212 285.50238 456.946075 253.0047 426.666656 239.29599 L 426.666656 181.333344 C 426.60788 128.338379 383.661621 85.39212 330.666656 85.333344 L 320 85.333344 L 320 64 C 320 28.653778 291.346222 0 256 0 C 220.653763 0 192 28.653778 192 64 L 192 85.333344 L 181.333328 85.333344 C 128.338364 85.39212 85.39212 128.338379 85.333336 181.333344 L 85.333336 236.437347 C 55.33057 250.298248 38.431789 282.632813 44.181335 315.17865 C 52.695599 362.674744 73.445534 407.130493 104.384003 444.160004 C 99.30426 446.720612 93.688507 448.036835 88 448 C 78.547035 448.368134 69.537445 443.979462 64 436.309326 C 63.717228 418.63623 49.161114 404.538574 31.487999 404.82132 C 13.814888 405.104095 -0.28277 419.660248 0 437.333344 C 0 477.098663 41.130665 512 88 512 C 108.005577 512.042847 127.553802 506.0177 144.063995 494.720001 C 177.805603 517.726685 222.170944 517.811218 256 494.93335 C 289.902802 517.857605 334.364044 517.764587 368.170654 494.698639 C 384.605957 505.972015 404.069946 512.003845 424 512 C 470.869354 512 512 477.098663 512 437.333344 C 512.072021 419.532928 497.798706 404.993164 480 404.735992 Z M 181.333328 149.333344 L 330.666656 149.333344 C 348.339752 149.333344 362.666656 163.660217 362.666656 181.333344 L 362.666656 219.733337 L 278.954681 195.712006 C 264.688507 190.887939 249.263046 190.693817 234.880005 195.157318 L 149.333328 218.048004 L 149.333328 181.333344 C 149.333328 163.660217 163.660217 149.333344 181.333328 149.333344 Z M 200 448 C 190.728561 448.565674 181.737732 444.7034 175.765335 437.589325 C 171.081436 426.28775 164.597427 415.819672 156.565338 406.59201 C 131.21962 377.605591 114.184517 342.304382 107.264 304.426697 C 106.397072 300.603394 107.96389 296.639771 111.210663 294.442688 L 224 264.277344 L 224 438.122681 C 217.923294 444.900543 209.087219 448.537079 200 448 Z M 312 448 C 303.195984 448.161224 294.644867 445.052399 288 439.274658 L 288 264.917358 L 399.76535 297.17334 C 403.811981 298.907654 406.077637 303.251709 405.18399 307.562683 C 398.408112 344.598022 381.192047 378.926514 355.562653 406.506683 C 347.460327 415.786041 340.931366 426.328949 336.23465 437.717316 C 330.251129 444.803558 321.253723 448.621094 312 448 Z"/>
</svg>
