<?xml version="1.0" encoding="UTF-8"?>
<!-- Generated by Pixelmator Pro 3.7 -->
<svg width="512" height="512" viewBox="0 0 512 512" xmlns="http://www.w3.org/2000/svg">
    <path id="Path" fill="#ffffff" stroke="none" d="M 240.405334 205.76001 L 378.666656 67.498657 L 444.501343 133.333344 L 306.23999 271.594666 C 288.895996 288.93866 265.386658 298.666687 240.87468 298.666687 L 224 298.666687 C 218.112 298.666687 213.333328 293.888 213.333328 288 L 213.333328 271.125305 C 213.333328 246.613342 223.06134 223.104004 240.405334 205.76001 Z M 498.368011 13.631989 C 480.192017 -4.544006 450.709351 -4.544006 432.533325 13.631989 L 408.832001 37.333344 L 474.666656 103.167999 L 498.368011 79.466675 C 516.544006 61.290649 516.544006 31.807983 498.368011 13.631989 Z M 465.536011 341.440002 L 454.101318 334.741333 C 463.829346 310.335999 469.354645 283.818665 469.354645 256 C 469.354645 247.76535 468.864014 239.338654 467.904022 230.975983 C 465.855988 213.418671 449.920013 200.810669 432.426666 202.880005 C 414.869354 204.928009 402.282684 220.800018 404.330658 238.35733 C 404.991974 244.138672 405.376007 250.048004 405.376007 256 C 405.376007 338.325317 338.368011 405.333344 256.042664 405.333344 C 173.717331 405.333344 106.709328 338.325317 106.709328 256 C 106.709328 173.674652 173.717331 106.666656 256.042664 106.666656 C 261.973328 106.666656 267.839996 107.007965 273.578674 107.690674 C 291.221344 110.058685 307.050659 97.258667 309.141327 79.701324 C 310.954681 64.533325 301.845337 50.666656 288.042664 45.781342 L 288.042664 31.978668 C 288.042664 14.314667 273.706665 -0.021301 256.042664 -0.021301 C 238.378662 -0.021301 224.042664 14.314667 224.042664 31.978668 L 224.042664 45.312012 C 170.282669 53.461334 123.029335 81.536011 90.26133 121.984009 L 78.805336 115.285309 C 63.658665 106.432007 43.989334 111.488007 35.029331 126.762665 C 26.112 142.015991 31.232 161.621338 46.506668 170.538666 L 57.941334 177.237335 C 48.213333 201.64267 42.688 228.160004 42.688 255.978668 C 42.688 283.797363 48.192001 310.335999 57.941334 334.719971 L 46.506668 341.41864 C 31.232 350.335999 26.112 369.941345 35.029331 385.194672 C 40.981335 395.391998 51.69067 401.045319 62.677334 401.045319 C 68.181335 401.045319 73.749336 399.637329 78.805336 396.671997 L 90.26133 389.973358 C 123.029335 430.421356 170.282669 458.496002 224.042664 466.645355 L 224.042664 479.978668 C 224.042664 497.64267 238.378662 511.978668 256.042664 511.978668 C 273.706665 511.978668 288.042664 497.64267 288.042664 479.978668 L 288.042664 466.645355 C 341.802643 458.496002 389.056 430.421356 421.824005 389.973358 L 433.279999 396.671997 C 438.336029 399.637329 443.904022 401.045319 449.40799 401.045319 C 460.394653 401.045319 471.104004 395.370697 477.056 385.194672 C 485.973358 369.941345 480.853363 350.335999 465.578644 341.41864 Z"/>
</svg>
