<?xml version="1.0" encoding="UTF-8"?>
<!-- Generated by Pixelmator Pro 3.7 -->
<svg width="364" height="293" viewBox="0 0 364 293" xmlns="http://www.w3.org/2000/svg">
    <path id="F1-copy-5" fill="#000000" fill-rule="evenodd" stroke="none" d="M 297.750031 31 C 249.701233 31 210.750015 69.951233 210.750015 118.000015 L 210.750015 147 L 268.750031 147 L 268.750031 118.000015 C 268.750031 101.983749 281.733734 89.000015 297.750031 89.000015 L 326.75 89.000015 L 326.75 31 L 297.750031 31 Z M 297.750031 147 C 249.701233 147 210.750015 185.951233 210.750015 234.000015 L 210.750015 263 L 268.750031 263 L 268.750031 234.000015 C 268.750031 217.983765 281.733734 205 297.750031 205 L 326.75 205 L 326.75 147 L 297.750031 147 Z M 123.750015 89.000015 C 75.701241 89.000015 36.750015 127.951233 36.750015 176.000015 C 36.750015 224.048782 75.701241 263 123.750015 263 C 171.798782 263 210.750015 224.048782 210.750015 176.000015 L 210.750015 147 L 152.750015 147 L 152.750015 176.000015 C 152.750015 192.016266 139.766266 205 123.750015 205 C 107.733757 205 94.750015 192.016266 94.750015 176.000015 C 94.750015 159.983749 107.733757 147 123.750015 147 C 171.798782 147 210.750015 108.048782 210.750015 60 L 210.750015 31 L 152.750015 31 L 152.750015 60 C 152.750015 76.016266 139.766266 89.000015 123.750015 89.000015 Z"/>
</svg>
