<?xml version="1.0" encoding="UTF-8"?>
<!-- Generated by Pixelmator Pro 3.7 -->
<svg width="512" height="512" viewBox="0 0 512 512" xmlns="http://www.w3.org/2000/svg">
    <path id="Path" fill="#ffffff" stroke="none" d="M 512 74.666656 C 512 33.429321 478.570679 0 437.333344 0 C 396.095978 0 362.666656 33.429321 362.666656 74.666656 C 362.666656 104.447998 380.11734 130.154663 405.333344 142.144012 L 405.333344 181.333344 C 405.333344 210.730682 381.397339 234.666656 352 234.666656 L 160 234.666656 C 140.821335 234.666656 122.666664 239.29599 106.666664 247.509338 L 106.666664 142.144012 C 131.882675 130.154663 149.333328 104.447998 149.333328 74.666656 C 149.333328 33.429321 115.903999 0 74.666664 0 C 33.429333 0 0 33.429321 0 74.666656 C 0 104.447998 17.450666 130.154663 42.666668 142.144012 L 42.666668 369.856018 C 17.450666 381.845337 0 407.552002 0 437.333344 C 0 478.570679 33.429333 512 74.666664 512 C 115.903999 512 149.333328 478.570679 149.333328 437.333344 C 149.333328 407.552002 131.882675 381.845337 106.666664 369.856018 L 106.666664 352 C 106.666664 322.602661 130.602676 298.666687 160 298.666687 L 352 298.666687 C 416.70401 298.666687 469.333344 246.037323 469.333344 181.333344 L 469.333344 142.144012 C 494.549316 130.154663 512 104.447998 512 74.666656 Z"/>
</svg>
